<svg id="Layer_1" data-name="Layer 1" xmlns="http://www.w3.org/2000/svg" viewBox="0 0 512 492.34"><defs><style>.cls-1{fill:#f2f2f2;}.cls-2{fill:#40596b;}.cls-3{fill:#ff7058;}.cls-4{fill:#ffd15c;}.cls-5{fill:#84dbff;}</style></defs><title>benefit-icon-06</title><path class="cls-1" d="M485,261.56c0,125.64-101.86,227.5-227.51,227.5S30,387.21,30,261.56,131.86,34,257.51,34,485,135.89,485,261.56" transform="translate(0 0)"/><path class="cls-2" d="M208.74,236.5q5.22-7.41,5.23-14.33a15.87,15.87,0,0,0-4.55-11.55A15.59,15.59,0,0,0,197.77,206q-13,0-24.68,18.56L148.4,209.93q9.69-15,21.23-22.71t29.44-7.71a47.34,47.34,0,0,1,31.39,11.37Q244,202.22,244,221.77a41.43,41.43,0,0,1-5.44,20.44c-3.64,6.52-10.3,14.86-20.06,25l-24.88,25.88h54.52v27.63H150.77v-22.9l40.49-41.48q12.26-12.45,17.48-19.84" transform="translate(0 0)"/><polygon class="cls-2" points="321.41 261.08 321.41 237 351.03 237 351.03 261.08 366.63 261.08 366.63 287.74 351.03 287.74 351.03 320.73 321.41 320.73 321.41 287.74 265.91 287.74 265.91 264.25 315.09 182.69 348.67 182.69 301.87 261.08 321.41 261.08"/><path class="cls-3" d="M247.72,127.06l17-30.12A155.22,155.22,0,0,0,75.85,124.79,160.09,160.09,0,0,1,90.62,89C133,14.15,227.75-12.28,302.52,30.12L319.55,0l30,100.9Z" transform="translate(0 0)"/><path class="cls-4" d="M146,337.29l-34.59.31A155.2,155.2,0,0,0,229.91,487.26a161.32,161.32,0,0,1-38.34,5.07c-86,.77-156.31-68.08-157-154L0,338.6l72.38-76.39Z" transform="translate(0 0)"/><path class="cls-5" d="M378.89,320.31l17.57,29.81a155.21,155.21,0,0,0,70.33-177.5,160.16,160.16,0,0,1,23.57,30.64c43.68,74.11,19.18,169.42-54.91,213L453,446,350.65,421.56Z" transform="translate(0 0)"/><polygon class="cls-2" points="429.02 166.99 429.02 175.52 402.37 235.59 388.74 235.59 414.52 177.77 387.57 177.77 387.57 189.43 375.71 189.43 375.71 166.99 429.02 166.99"/></svg>