<svg id="Layer_1" data-name="Layer 1" xmlns="http://www.w3.org/2000/svg" viewBox="0 0 511 512"><defs><style>.cls-1{fill:#9facba;}.cls-2{fill:#d9e7ec;}.cls-3{fill:#54469d;}.cls-4{fill:#463b85;}.cls-5{fill:#c5d3dd;}.cls-6{fill:#b6c4cf;}.cls-7{fill:#5a69e6;}.cls-8{fill:#7984eb;}.cls-9{fill:#b5baf3;}.cls-10{fill:#979fef;}.cls-11{fill:#25d9f8;}.cls-12{fill:#00c0f1;}.cls-13{fill:#76e2f8;}</style></defs><title>benefit-icon-04</title><path class="cls-1" d="M466,151H451l-30,15.94L451,181h15a15,15,0,0,1,15,15v90a15,15,0,0,0,30,0V196a45.05,45.05,0,0,0-45-45"/><path class="cls-2" d="M451,106v45l-30,30H391l-30-30V106a45,45,0,0,1,90,0"/><path class="cls-3" d="M331,45V497a14.85,14.85,0,0,1-15,15H15A14.85,14.85,0,0,1,0,497V45A14.85,14.85,0,0,1,15,30H316a14.85,14.85,0,0,1,15,15"/><path class="cls-4" d="M331,45V497a14.85,14.85,0,0,1-15,15H165V30H316a14.85,14.85,0,0,1,15,15"/><rect class="cls-2" x="30" y="60" width="271" height="422"/><rect class="cls-5" x="165" y="60" width="136" height="422"/><path class="cls-6" d="M270,407a14.85,14.85,0,0,1-15,15H75a15,15,0,0,1,0-30H255a14.85,14.85,0,0,1,15,15"/><path class="cls-2" d="M421,467v30a15,15,0,0,1-30,0V467a15,15,0,0,1,30,0"/><path class="cls-7" d="M267.9,182.2,217.5,181,165,241l-30,58.5L165,361a13.54,13.54,0,0,0,7.5-2.1l90.3-53.4c.6-.3,1.2-.9,1.8-1.2a16.47,16.47,0,0,0,5.4-11.7V189.7a12.89,12.89,0,0,0-2.1-7.5"/><path class="cls-8" d="M112.5,181l-50.4,1.2a13.54,13.54,0,0,0-2.1,7.5V292.6a16.47,16.47,0,0,0,5.4,11.7c.6.3,92.1,54.6,92.1,54.6A13.54,13.54,0,0,0,165,361V241Z"/><path class="cls-9" d="M267.9,182.2,165,241,62.1,182.2c.3-.3.6-.9.9-1.2a15.05,15.05,0,0,1,4.5-4.2l90-53.7a14.44,14.44,0,0,1,15,0l90,53.7A20.19,20.19,0,0,1,267,181c.3.3.6.9.9,1.2"/><path class="cls-10" d="M267.9,182.2,165,241V121a14.25,14.25,0,0,1,7.5,2.1l90,53.7A20.19,20.19,0,0,1,267,181c.3.3.6.9.9,1.2"/><path class="cls-1" d="M270,407a14.85,14.85,0,0,1-15,15H165V392h90a14.85,14.85,0,0,1,15,15"/><path class="cls-11" d="M240,30a30.09,30.09,0,0,1-30,30H120a30,30,0,0,1,0-60h90a30.09,30.09,0,0,1,30,30"/><path class="cls-12" d="M210,60H165V0h45a30,30,0,0,1,0,60"/><path class="cls-6" d="M421,467v30a14.85,14.85,0,0,1-15,15V452a14.85,14.85,0,0,1,15,15"/><path class="cls-6" d="M451,106v45l-30,30H406V61a44.94,44.94,0,0,1,45,45"/><path class="cls-13" d="M361,151V407a16.35,16.35,0,0,0,1.5,6.6l30,60a15,15,0,0,0,27,0l30-60A16.35,16.35,0,0,0,451,407V151Z"/><path class="cls-12" d="M451,151V407a16.35,16.35,0,0,1-1.5,6.6l-30,60A15.36,15.36,0,0,1,406,482V151Z"/></svg>