<svg xmlns="http://www.w3.org/2000/svg" width="104" height="104" viewBox="0 0 104 104">
  <defs>
    <style>
      .cls-1 {
        fill: #00afef;
        fill-rule: evenodd;
        opacity: 0.08;
      }
    </style>
  </defs>
  <path class="cls-1" d="M1336,5268.96a26.05,26.05,0,1,0,26.04,26.05A26.072,26.072,0,0,0,1336,5268.96Zm0-7.66a5.089,5.089,0,0,1-5.09-5.08v-8.14a5.085,5.085,0,0,1,10.17,0v8.14A5.087,5.087,0,0,1,1336,5261.3Zm0,67.42a5.083,5.083,0,0,0-5.09,5.08v8.13a5.085,5.085,0,1,0,10.17,0v-8.13A5.081,5.081,0,0,0,1336,5328.72Zm23.82-57.55a5.094,5.094,0,0,1,0-7.19l5.75-5.75a5.084,5.084,0,0,1,7.19,7.19l-5.75,5.75A5.076,5.076,0,0,1,1359.82,5271.17Zm-47.65,47.68a5.076,5.076,0,0,0-7.19,0l-5.75,5.75a5.081,5.081,0,1,0,7.19,7.18l5.75-5.75A5.082,5.082,0,0,0,1312.17,5318.85Zm57.52-23.84a5.091,5.091,0,0,1,5.09-5.09h8.13a5.085,5.085,0,0,1,0,10.17h-8.13A5.089,5.089,0,0,1,1369.69,5295.01Zm-67.39,0a5.091,5.091,0,0,0-5.09-5.09h-8.12a5.085,5.085,0,1,0,0,10.17h8.13A5.087,5.087,0,0,0,1302.3,5295.01Zm57.52,23.84a5.076,5.076,0,0,1,7.19,0l5.75,5.75a5.081,5.081,0,1,1-7.19,7.18l-5.75-5.75A5.082,5.082,0,0,1,1359.82,5318.85Zm-47.65-47.68a5.094,5.094,0,0,0,0-7.19l-5.75-5.75a5.084,5.084,0,0,0-7.19,7.19l5.75,5.75A5.076,5.076,0,0,0,1312.17,5271.17Z" transform="translate(-1284 -5243)"/>
</svg>
