<svg xmlns="http://www.w3.org/2000/svg" width="97" height="97" viewBox="0 0 97 97">
  <defs>
    <style>
      .cls-1 {
        fill: #00afef;
        fill-rule: evenodd;
        opacity: 0.08;
      }
    </style>
  </defs>
  <path class="cls-1" d="M529.217,5309.67a54.967,54.967,0,0,1-17.3-2.76,7.929,7.929,0,0,0-7.688,1.62l-10.907,8.24c-12.649-6.75-20.44-14.54-27.1-27.1l7.991-10.62a7.834,7.834,0,0,0,1.929-7.94,55.219,55.219,0,0,1-2.765-17.33A7.791,7.791,0,0,0,465.6,5246H447.783a7.791,7.791,0,0,0-7.783,7.78A89.317,89.317,0,0,0,529.217,5343a7.791,7.791,0,0,0,7.783-7.78v-17.77A7.791,7.791,0,0,0,529.217,5309.67Z" transform="translate(-440 -5246)"/>
</svg>
