<svg id="Capa_1" data-name="Capa 1" xmlns="http://www.w3.org/2000/svg" viewBox="0 0 42.82 58.39"><defs><style>.cls-1{fill:#e5e5e5;}.cls-2{fill:#d6d6d6;}.cls-3{fill:#fdb62f;}.cls-4{fill:#ffa230;}.cls-5{fill:#126099;}.cls-6{fill:#fdc353;}</style></defs><title>feature-icon-03</title><path class="cls-1" d="M37.79,28.05V16.38A7.79,7.79,0,0,0,30,8.59h0a7.79,7.79,0,0,0-7.79,7.79V28.05H14.43V16.38A15.58,15.58,0,0,1,30,.8h0A15.58,15.58,0,0,1,45.57,16.38V28.05Z" transform="translate(-8.59 -0.8)"/><path class="cls-2" d="M14.43,28.05h7.78V18.87a78.5,78.5,0,0,1-7.78,3.34Z" transform="translate(-8.59 -0.8)"/><path class="cls-2" d="M40.69,5.07a54.47,54.47,0,0,1-5.59,5.47,7.82,7.82,0,0,1,2.69,5.84V28.05h7.78V16.38A15.55,15.55,0,0,0,40.69,5.07Z" transform="translate(-8.59 -0.8)"/><rect id="SVGCleanerId_0" data-name="SVGCleanerId 0" class="cls-3" y="23.36" width="42.82" height="35.03"/><rect id="SVGCleanerId_0-2" data-name="SVGCleanerId 0" class="cls-3" y="23.36" width="42.82" height="35.03"/><path class="cls-4" d="M51.41,59.2H8.59C20.74,51.41,39.26,51.41,51.41,59.2Z" transform="translate(-8.59 -0.8)"/><rect class="cls-5" x="19.46" y="40.87" width="3.89" height="9.73"/><circle class="cls-5" cx="21.41" cy="38.93" r="3.89"/><path class="cls-6" d="M8.59,24.16H51.41C39.26,32,20.74,32,8.59,24.16Z" transform="translate(-8.59 -0.8)"/></svg>