<svg id="Layer_1" data-name="Layer 1" xmlns="http://www.w3.org/2000/svg" viewBox="0 0 416 400"><defs><style>.cls-1{fill:#0093ba;}.cls-2{fill:#06687f;}.cls-3{fill:#f0a91e;}.cls-4{fill:#ffd91c;}</style></defs><title>benefit-icon-07</title><polygon class="cls-1" points="8 104 64 8 360 8 400 56 360 104 8 104"/><path class="cls-2" d="M88,0H360a8,8,0,0,1,6.14,2.87l40,48a8,8,0,0,1,0,10.26l-40,48A8,8,0,0,1,360,112H32V96H356.26L389.6,56,356.26,16H88Z"/><rect class="cls-2" y="96" width="16" height="16"/><rect class="cls-2" x="56" width="16" height="16"/><rect class="cls-2" x="32" y="32" width="88" height="16"/><rect class="cls-2" x="16" y="64" width="88" height="16"/><polygon class="cls-1" points="408 296 352 392 56 392 16 344 56 296 408 296"/><path class="cls-2" d="M328,400H56a8,8,0,0,1-6.14-2.87l-40-48a8,8,0,0,1,0-10.26l40-48A8,8,0,0,1,56,288H384v16H59.74L26.4,344l33.33,40H328Z"/><path class="cls-3" d="M328,200A120,120,0,1,1,208,80,120,120,0,0,1,328,200"/><path class="cls-4" d="M296,200a88,88,0,1,1-88-88,88,88,0,0,1,88,88"/><rect class="cls-2" x="400" y="288" width="16" height="16"/><rect class="cls-2" x="344" y="384" width="16" height="16"/><rect class="cls-2" x="296" y="352" width="88" height="16"/><rect class="cls-2" x="312" y="320" width="88" height="16"/><rect class="cls-3" x="152" y="192" width="16" height="16"/><rect class="cls-3" x="248" y="192" width="16" height="16"/><path class="cls-3" d="M216,161.16V152H200v9.16a22.75,22.75,0,0,0-3.37,42.1l15.58,7.8a6.83,6.83,0,0,1-3,12.94h-2.34a6.83,6.83,0,0,1-6.83-6.83V216H184v1.17a22.78,22.78,0,0,0,16,21.67V248h16v-9.16a22.76,22.76,0,0,0,3.38-42.1L203.78,189A6.84,6.84,0,0,1,206.83,176h2.34a6.83,6.83,0,0,1,6.83,6.83V184h16v-1.17a22.79,22.79,0,0,0-16-21.67"/></svg>