<svg id="Layer_1" data-name="Layer 1" xmlns="http://www.w3.org/2000/svg" viewBox="0 0 314 384"><defs><style>.cls-1{fill:#fd646f;}.cls-2{fill:#fc4755;}.cls-3{fill:none;}.cls-4{fill:#faa515;}.cls-5{fill:#fad207;}.cls-6{fill:#faf063;fill-rule:evenodd;}</style></defs><title>benefit-icon-03</title><path class="cls-1" d="M308.3,345.84l-46.23-10.18L247.75,380.9a3.93,3.93,0,0,1-7.14.77l-57.19-99.35a141.92,141.92,0,0,0,72.48-40.68l56.64,98.41a3.92,3.92,0,0,1-4.24,5.79" transform="translate(0 0)"/><path class="cls-1" d="M308.3,345.84l-42.73-9.41a3.93,3.93,0,0,0-4.58,2.65L247.75,380.9a3.93,3.93,0,0,1-7.14.77l-49-85.12-8.19-14.23a142,142,0,0,0,72.48-40.68L264,255.76l48.52,84.29a3.93,3.93,0,0,1-4.25,5.79" transform="translate(0 0)"/><path class="cls-2" d="M308.3,345.84l-42.73-9.41a3.92,3.92,0,0,0-4.57,2.65l4.59-14.3a3.93,3.93,0,0,1,4.59-2.62L307,330.33l5.6,9.72a3.93,3.93,0,0,1-4.25,5.79" transform="translate(0 0)"/><path class="cls-1" d="M131.48,281.13,73.39,382a3.92,3.92,0,0,1-7.14-.77L53,339.44a3.92,3.92,0,0,0-4.58-2.64L5.69,346.2a3.92,3.92,0,0,1-4.24-5.79l54-93.87c20.18,19.13,47.39,29.88,76,34.59" transform="translate(0 0)"/><path class="cls-2" d="M63.13,260.51,15,344.15,5.69,346.2a3.92,3.92,0,0,1-4.24-5.79l46-79.9,12.44-21.67q5,4.77,10.5,9Z" transform="translate(0 0)"/><path class="cls-2" d="M79.06,372.18,73.39,382a3.92,3.92,0,0,1-7.14-.77L53,339.45a3.92,3.92,0,0,0-4.58-2.66l14.65-3.22a3.92,3.92,0,0,1,4.58,2.64Z" transform="translate(0 0)"/><path class="cls-2" d="M56.79,244.16,95,261.39l36.48,19.74-9.78,17a157.11,157.11,0,0,1-73.5-36.93l-.76-.67Z" transform="translate(0 0)"/><path class="cls-2" d="M264,255.77l-8.14-14.13-43,19-29.44,21.68,3.31,5.75,8.13,14.11,45.75,79.49a3.93,3.93,0,0,0,7.14-.77l2.91-9.2-45.48-79.22A157.07,157.07,0,0,0,264,255.77" transform="translate(0 0)"/><rect class="cls-3" width="314" height="384"/><path class="cls-4" d="M299.34,142.77A142.21,142.21,0,0,1,62.4,249.43c-1.07-.94-2.11-1.9-3.15-2.88a146.56,146.56,0,0,1-10.44-11,142.4,142.4,0,0,1-34.15-92.78C14.66,63.92,78.39,0,157,0a141.83,141.83,0,0,1,92.49,34.26,144.77,144.77,0,0,1,13.86,13.61,142.51,142.51,0,0,1,36,94.9" transform="translate(0 0)"/><path class="cls-5" d="M259,142.77C259,199.25,213.3,245,157,245S55.05,199.25,55.05,142.77,100.69,40.51,157,40.51,259,86.29,259,142.77" transform="translate(0 0)"/><path class="cls-4" d="M259,142.77C259,199.24,213.3,245,157,245S55.05,199.24,55.05,142.77a102.43,102.43,0,0,1,.77-12.59,101.92,101.92,0,0,0,202.36,0,102.55,102.55,0,0,1,.77,12.59" transform="translate(0 0)"/><path class="cls-6" d="M157,40.51c-56.31,0-101.95,45.79-101.95,102.26S100.69,245,157,245,259,199.24,259,142.77,213.3,40.51,157,40.51m0,192.72c-49.73,0-90.19-40.58-90.19-90.46S107.27,52.31,157,52.31s90.18,40.58,90.18,90.46S206.73,233.23,157,233.23" transform="translate(0 0)"/><path class="cls-4" d="M160.52,86.22l14,28.61a3.93,3.93,0,0,0,3,2.16L209,121.51a3.92,3.92,0,0,1,2.18,6.69l-22.82,22.23a3.88,3.88,0,0,0-1.13,3.48l5.43,31.43a3.91,3.91,0,0,1-5.69,4.13l-28.09-14.88a3.93,3.93,0,0,0-3.68,0l-28.09,14.88a3.92,3.92,0,0,1-5.7-4.13l5.44-31.43a3.91,3.91,0,0,0-1.13-3.48L102.85,128.2a3.92,3.92,0,0,1,2.18-6.69L136.51,117a3.93,3.93,0,0,0,3-2.16l14-28.61a3.92,3.92,0,0,1,7,0" transform="translate(0 0)"/></svg>