<svg id="Layer_1" data-name="Layer 1" xmlns="http://www.w3.org/2000/svg" viewBox="0 0 384 383.62"><defs><style>.cls-1{fill:#9dc6fb;}.cls-2{fill:#698ed5;}.cls-3{fill:#dd636e;}.cls-4{fill:#cb5769;}.cls-5{fill:#f6e266;}.cls-6{fill:#ffd064;}.cls-7{fill:#d3effb;}.cls-8{fill:#365e7d;}.cls-9{fill:#2b4d66;}.cls-10{fill:#95d6a4;}.cls-11{fill:#78c2a4;}</style></defs><title>benefit-icon-05</title><path class="cls-1" d="M106.81,368.64V191.81h15.28A24.1,24.1,0,0,0,143,155.66L94,70.84a24.09,24.09,0,0,0-41.73,0l-49,84.82a24.1,24.1,0,0,0,20.86,36.15H39.42V368.64A15.16,15.16,0,0,0,54.59,383.8H91.64a15.16,15.16,0,0,0,15.17-15.16" transform="translate(0 -0.19)"/><path class="cls-2" d="M68.54,383.81h-14a15.16,15.16,0,0,1-15.16-15.16V191.81H24.13A24.09,24.09,0,0,1,3.27,155.66l49-84.82a23.88,23.88,0,0,1,20.87-12c-5.43,0-10.87,4-14,12L26.32,155.66c-6.21,16.06,1.56,36.15,14,36.15h6.29a11.78,11.78,0,0,1,11.79,11.78v165c0,8.38,4.55,15.17,10.16,15.17" transform="translate(0 -0.19)"/><path class="cls-3" d="M298,231.4v-138h10.71a16.89,16.89,0,0,0,14.63-25.33L289,8.64a16.89,16.89,0,0,0-29.25,0L225.38,68.07A16.89,16.89,0,0,0,240,93.41h10.71v138A10.62,10.62,0,0,0,261.35,242h26A10.62,10.62,0,0,0,298,231.4" transform="translate(0 -0.19)"/><path class="cls-4" d="M271.13,242h-9.78a10.62,10.62,0,0,1-10.62-10.63v-138H240a16.89,16.89,0,0,1-14.62-25.34L259.71,8.64A16.74,16.74,0,0,1,274.34.19c-3.82,0-7.62,2.82-9.8,8.45l-23,59.43c-4.36,11.27,1.08,25.34,9.79,25.34h4.4a8.26,8.26,0,0,1,8.27,8.26V231.4c0,5.87,3.19,10.63,7.12,10.63" transform="translate(0 -0.19)"/><path class="cls-5" d="M322,242a130,130,0,1,1-130-130A130,130,0,0,1,322,242" transform="translate(0 -0.19)"/><path class="cls-6" d="M200.34,371.73c-2.76.17-5.54.27-8.34.27a130,130,0,0,1,0-259.94q4.2,0,8.34.26a130,130,0,0,0,0,259.41" transform="translate(0 -0.19)"/><path class="cls-7" d="M291.33,242A99.34,99.34,0,1,1,192,142.69,99.33,99.33,0,0,1,291.33,242" transform="translate(0 -0.19)"/><path class="cls-1" d="M209.35,339.92a99.34,99.34,0,1,1,0-195.79,99.35,99.35,0,0,0,0,195.79" transform="translate(0 -0.19)"/><path class="cls-8" d="M192,254.68H145.85a12.66,12.66,0,1,1,0-25.31H192a12.66,12.66,0,0,1,0,25.31" transform="translate(0 -0.19)"/><path class="cls-9" d="M192,254.68A12.65,12.65,0,0,1,179.34,242V209.71a12.66,12.66,0,0,1,25.31,0V242A12.65,12.65,0,0,1,192,254.68" transform="translate(0 -0.19)"/><path class="cls-8" d="M192,171.89a5.8,5.8,0,0,1-5.8-5.8v-20a5.8,5.8,0,0,1,11.59,0v20a5.8,5.8,0,0,1-5.79,5.8" transform="translate(0 -0.19)"/><path class="cls-8" d="M192,343.71a5.8,5.8,0,0,1-5.8-5.79V318a5.8,5.8,0,0,1,11.59,0v20a5.79,5.79,0,0,1-5.79,5.79" transform="translate(0 -0.19)"/><path class="cls-8" d="M287.89,247.82h-20a5.8,5.8,0,0,1,0-11.59h20a5.8,5.8,0,1,1,0,11.59" transform="translate(0 -0.19)"/><path class="cls-8" d="M116.06,247.82h-20a5.8,5.8,0,0,1,0-11.59h20a5.8,5.8,0,1,1,0,11.59" transform="translate(0 -0.19)"/><path class="cls-8" d="M264.85,205.77A5.8,5.8,0,0,1,262,195l10.2-5.89a5.79,5.79,0,0,1,5.79,10L267.74,205a5.73,5.73,0,0,1-2.89.78" transform="translate(0 -0.19)"/><path class="cls-8" d="M109,295.77a5.79,5.79,0,0,1-2.9-10.81l10.2-5.89a5.79,5.79,0,1,1,5.79,10L111.85,295a5.76,5.76,0,0,1-2.89.78" transform="translate(0 -0.19)"/><path class="cls-8" d="M234.05,175a5.8,5.8,0,0,1-5-8.7l5.89-10.2a5.79,5.79,0,1,1,10,5.8l-5.89,10.2a5.79,5.79,0,0,1-5,2.9" transform="translate(0 -0.19)"/><path class="cls-8" d="M144.05,330.87a5.8,5.8,0,0,1-5-8.69L144.92,312a5.8,5.8,0,1,1,10,5.8L149.07,328a5.79,5.79,0,0,1-5,2.9" transform="translate(0 -0.19)"/><path class="cls-8" d="M150,175a5.81,5.81,0,0,1-5-2.9L139,161.88a5.8,5.8,0,1,1,10-5.8l5.89,10.2a5.8,5.8,0,0,1-2.12,7.92A5.73,5.73,0,0,1,150,175" transform="translate(0 -0.19)"/><path class="cls-8" d="M240,330.87a5.79,5.79,0,0,1-5-2.9L229,317.77a5.79,5.79,0,1,1,10-5.8L245,322.18a5.8,5.8,0,0,1-5,8.69" transform="translate(0 -0.19)"/><path class="cls-8" d="M119.15,205.77a5.71,5.71,0,0,1-2.89-.78l-10.2-5.89a5.79,5.79,0,1,1,5.79-10l10.2,5.89a5.8,5.8,0,0,1-2.9,10.82" transform="translate(0 -0.19)"/><path class="cls-8" d="M275,295.77a5.73,5.73,0,0,1-2.89-.78L262,289.1a5.79,5.79,0,1,1,5.79-10l10.2,5.89a5.79,5.79,0,0,1-2.9,10.81" transform="translate(0 -0.19)"/><path class="cls-6" d="M192,347.16A105.13,105.13,0,1,1,297.13,242,105.25,105.25,0,0,1,192,347.16m0-198.67A93.54,93.54,0,1,0,285.54,242,93.64,93.64,0,0,0,192,148.49" transform="translate(0 -0.19)"/><path class="cls-10" d="M344.59,368.64V312.77h15.28a24.09,24.09,0,0,0,20.86-36.15l-49-84.81a24.1,24.1,0,0,0-41.74,0l-49,84.81a24.1,24.1,0,0,0,20.87,36.15H277.2v55.87a15.16,15.16,0,0,0,15.16,15.16h37.06a15.16,15.16,0,0,0,15.17-15.16" transform="translate(0 -0.19)"/><path class="cls-11" d="M306.32,383.81h-14a15.16,15.16,0,0,1-15.16-15.16V312.77H261.91a24.09,24.09,0,0,1-20.86-36.15l49-84.81a23.85,23.85,0,0,1,20.87-12c-5.44,0-10.87,4-14,12L264.1,276.62c-6.22,16.07,1.55,36.15,14,36.15h6.28a11.79,11.79,0,0,1,11.79,11.79v44.08c0,8.38,4.56,15.17,10.17,15.17" transform="translate(0 -0.19)"/></svg>