<svg id="Layer_1" data-name="Layer 1" xmlns="http://www.w3.org/2000/svg" xmlns:xlink="http://www.w3.org/1999/xlink" viewBox="0 0 384 368.18"><defs><style>.cls-1{fill:none;}.cls-2{clip-path:url(#clip-path);}.cls-3{fill:#c9f0ff;}.cls-4{fill:#b5eaff;}.cls-5{fill:#3498ac;}.cls-6{fill:#78d2f5;}.cls-7{fill:#ff815c;}</style><clipPath id="clip-path"><rect class="cls-1" width="384" height="368.18"/></clipPath></defs><title>benefit-icon-01</title><g class="cls-2"><path class="cls-3" d="M384,184.09c0,101.67-82,184.09-183.19,184.09S17.62,285.76,17.62,184.09,99.64,0,200.81,0,384,82.42,384,184.09"/><path class="cls-4" d="M200.81,0c-3.89,0-7.76.13-11.59.37,95.77,6,171.6,86,171.6,183.72S285,361.81,189.22,367.81q5.75.38,11.59.37C302,368.18,384,285.76,384,184.09S302,0,200.81,0"/><path class="cls-5" d="M101.71,24.9a5.79,5.79,0,0,0-6.2,8.54Q101,29.53,106.88,26c-1.72-.39-3.44-.77-5.17-1.12"/><path class="cls-5" d="M16.58,160.08a5.79,5.79,0,0,0,2.2,3.21c.38-3.41.85-6.78,1.42-10.13a5.8,5.8,0,0,0-3.62,6.92"/><path class="cls-5" d="M92.12,335.13a5.53,5.53,0,0,0,.23,1.6c.05.17.1.33.16.49h0a5.78,5.78,0,0,0,5.68,4.69,5.29,5.29,0,0,0,1.11-.11,5.67,5.67,0,0,0,3.42-2.08l.15,0q-5.82-3.7-11.35-7.84c.19,1.09.39,2.18.59,3.28"/><path class="cls-5" d="M302.3,341.81a5.38,5.38,0,0,0,1.12.11,5.79,5.79,0,0,0,5.68-4.69c.35-1.79.68-3.59,1-5.38q-5.49,4.09-11.28,7.8a5.79,5.79,0,0,0,3.49,2.16"/><path class="cls-5" d="M306.75,29.41a5.8,5.8,0,0,0-6.84-4.52c-1.73.36-3.45.73-5.17,1.13q5.83,3.5,11.36,7.42a5.75,5.75,0,0,0,.65-4"/><path class="cls-5" d="M351.44,74.09a5.81,5.81,0,0,0-4.34-7,5.72,5.72,0,0,0-4.27.68q4,4.93,7.69,10.16c.31-1.29.62-2.59.92-3.88"/><path class="cls-6" d="M299.85,193.59A362.82,362.82,0,0,0,350.52,78q-3.67-5.24-7.7-10.18a5.84,5.84,0,0,0-2.67,3.67,351.22,351.22,0,0,1-46.87,111,269.8,269.8,0,0,0-23.77-44.27,266.43,266.43,0,0,0-58.84-63.44,253.13,253.13,0,0,1,91.56-38.51,5.74,5.74,0,0,0,3.87-2.81q-5.53-3.91-11.36-7.42a264,264,0,0,0-93.93,41.47A264,264,0,0,0,106.87,26q-5.82,3.5-11.36,7.42a5.77,5.77,0,0,0,3.87,2.81,253.05,253.05,0,0,1,91.56,38.51A266.43,266.43,0,0,0,132.1,138.2c-.71,1.08-1.42,2.17-2.12,3.27A361.25,361.25,0,0,0,20.71,153l-.52.16q-.84,5-1.42,10.13a5.79,5.79,0,0,0,4.89.92,350,350,0,0,1,99.41-11.41A265.72,265.72,0,0,0,91.53,331.85Q97,336,102.88,339.69a362,362,0,0,0,187.31-132.3A255,255,0,0,1,297.72,335a5.8,5.8,0,0,0,1.09,4.63q5.79-3.7,11.28-7.8a266.5,266.5,0,0,0-7.18-122.64A351.93,351.93,0,0,1,365,260.67a5.79,5.79,0,0,0,1.82,1.28q2.55-5.49,4.75-11.16a362.89,362.89,0,0,0-71.75-57.2m-99-111.77a254.49,254.49,0,0,1,59,62.79,257.24,257.24,0,0,1,20.93,38.17,361.52,361.52,0,0,0-67.38-27.35,357.62,357.62,0,0,0-70.12-13.08,254.08,254.08,0,0,1,57.53-60.53M102.57,327.67a254.18,254.18,0,0,1,33.6-174.24,345.68,345.68,0,0,1,74,13.13,350.14,350.14,0,0,1,73.06,30.73A350.45,350.45,0,0,1,102.57,327.67"/><path class="cls-7" d="M218.43,73a17.62,17.62,0,1,1-17.62-17.7A17.67,17.67,0,0,1,218.43,73"/><path class="cls-7" d="M149.87,150.82a17.62,17.62,0,1,1-17.62-17.7,17.67,17.67,0,0,1,17.62,17.7"/><path class="cls-7" d="M310.09,196a17.62,17.62,0,1,1-17.62-17.71A17.66,17.66,0,0,1,310.09,196"/><path class="cls-7" d="M97.91,352.82a17.71,17.71,0,1,1,17.62-17.7,17.68,17.68,0,0,1-17.62,17.7"/><path class="cls-7" d="M304.72,353.83a17.71,17.71,0,1,1,17.62-17.71,17.69,17.69,0,0,1-17.62,17.71"/><path class="cls-7" d="M345.8,89.85a17.71,17.71,0,1,1,17.61-17.7,17.68,17.68,0,0,1-17.61,17.7"/><path class="cls-7" d="M301.07,48.28a17.71,17.71,0,1,1,17.62-17.71,17.68,17.68,0,0,1-17.62,17.71"/><path class="cls-7" d="M97.91,48.28a17.71,17.71,0,1,1,17.62-17.71A17.68,17.68,0,0,1,97.91,48.28"/><path class="cls-7" d="M35.23,160a17.62,17.62,0,1,1-17.61-17.7A17.66,17.66,0,0,1,35.23,160"/></g></svg>