<svg id="wallet" xmlns="http://www.w3.org/2000/svg" xmlns:xlink="http://www.w3.org/1999/xlink" viewBox="0 0 65.89 55.76"><defs><style>.cls-1{fill-rule:evenodd;fill:url(#linear-gradient);}</style><linearGradient id="linear-gradient" x1="2.05" y1="30" x2="67.95" y2="30" gradientUnits="userSpaceOnUse"><stop offset="0" stop-color="#89ced6"/><stop offset="1" stop-color="#1fa1ae"/></linearGradient></defs><title>feature-icon-01</title><path id="wallet:5" class="cls-1" d="M43.16,41.36A4.13,4.13,0,0,1,39,37.23V33.1A4.13,4.13,0,0,1,43.16,29H68V41.36Zm3.1-9.12a3.1,3.1,0,1,0,3.1,3.1A3.1,3.1,0,0,0,46.26,32.24ZM37,33.1v4.13a6.19,6.19,0,0,0,6.19,6.19H63.82v8.27a6.2,6.2,0,0,1-6.2,6.19H8.25a6.2,6.2,0,0,1-6.2-6.19V12.44a6.2,6.2,0,0,1,6.2-6.19H28.14l-4.85,2H7.22a3.1,3.1,0,1,0,0,6.2h56.6V26.9H43.16A6.2,6.2,0,0,0,37,33.1ZM18.58,12.32,48.84,2.12l4.65,10.2ZM52.76,6.25h4.86a6.16,6.16,0,0,1,4.55,2H53.74Z" transform="translate(-2.05 -2.12)"/></svg>