<svg id="Layer_1" data-name="Layer 1" xmlns="http://www.w3.org/2000/svg" xmlns:xlink="http://www.w3.org/1999/xlink" viewBox="0 0 44.8 46.4"><defs><style>.cls-1{fill:none;}.cls-2{clip-path:url(#clip-path);}.cls-3{fill:#e7eced;}.cls-4{fill:#424a60;}.cls-5{fill:#a4e869;}.cls-6{fill:#262b35;}</style><clipPath id="clip-path" transform="translate(-2.56 -1.52)"><rect class="cls-1" x="2.56" y="1.12" width="44.88" height="47.76"/></clipPath></defs><title>feature-icon-02</title><g class="cls-2"><path class="cls-3" d="M12.16,4.59a2.76,2.76,0,0,1,.44-1.47l-8,2.15A2.73,2.73,0,0,0,2.65,8.61L12.1,43.86a0,0,0,0,0,.06,0Zm0,0" transform="translate(-2.56 -1.52)"/><path class="cls-3" d="M37.76,3.79a2.76,2.76,0,0,0-.44-1.47l8,2.15A2.72,2.72,0,0,1,47.27,7.8L37.82,43.07a0,0,0,0,1-.06,0Zm0,0" transform="translate(-2.56 -1.52)"/></g><path class="cls-4" d="M35,47.92H14.88a2.72,2.72,0,0,1-2.72-2.72v-41a2.72,2.72,0,0,1,2.72-2.72H35a2.72,2.72,0,0,1,2.72,2.72v41A2.72,2.72,0,0,1,35,47.92Zm0,0" transform="translate(-2.56 -1.52)"/><rect class="cls-5" x="9.6" y="4.8" width="25.6" height="32"/><path class="cls-6" d="M27.36,43.12a2.4,2.4,0,1,1-2.4-2.4,2.39,2.39,0,0,1,2.4,2.4Zm0,0" transform="translate(-2.56 -1.52)"/><path class="cls-6" d="M25,4.72h-3.2a.8.8,0,0,1,0-1.6H25a.8.8,0,1,1,0,1.6Zm0,0" transform="translate(-2.56 -1.52)"/><path class="cls-6" d="M28.16,4.72h-.8a.8.8,0,0,1,0-1.6h.8a.8.8,0,1,1,0,1.6Zm0,0" transform="translate(-2.56 -1.52)"/></svg>