<svg id="Layer_1" data-name="Layer 1" xmlns="http://www.w3.org/2000/svg" viewBox="0 0 266.97 221.41"><defs><style>.cls-1{fill:#5d6d7e;}.cls-2{fill:#283a4d;}.cls-3{fill:#34495e;}.cls-4{fill:#fff;}.cls-5{fill:#e1effa;}</style></defs><title>product-icon</title><path class="cls-1" d="M384.35,359a7.73,7.73,0,0,1-7.69,7.7H135.34a7.73,7.73,0,0,1-7.69-7.7V224.66a7.73,7.73,0,0,1,7.69-7.71H376.66a7.73,7.73,0,0,1,7.69,7.71V359Z" transform="translate(-122.51 -145.3)"/><path class="cls-2" d="M135.34,362.86A3.87,3.87,0,0,1,131.5,359V224.66a3.85,3.85,0,0,1,3.84-3.85H376.66a3.85,3.85,0,0,1,3.84,3.85V359a3.86,3.86,0,0,1-3.84,3.86Z" transform="translate(-122.51 -145.3)"/><path class="cls-1" d="M389.48,262.74a7.72,7.72,0,0,1-7.69,7.69H130.22a7.73,7.73,0,0,1-7.71-7.69V181.87a7.74,7.74,0,0,1,7.71-7.71H381.79a7.73,7.73,0,0,1,7.69,7.71Z" transform="translate(-122.51 -145.3)"/><path class="cls-3" d="M130.22,266.58a3.84,3.84,0,0,1-3.85-3.84V181.87a3.85,3.85,0,0,1,3.85-3.85H381.79a3.85,3.85,0,0,1,3.84,3.85v80.86a3.85,3.85,0,0,1-3.84,3.85Z" transform="translate(-122.51 -145.3)"/><path class="cls-4" d="M213.34,251.7a1.64,1.64,0,0,0-1.16-.53H193.5a1.66,1.66,0,0,0-1.21.53,1.7,1.7,0,0,0-.47,1.15v35.21a1.6,1.6,0,0,0,.47,1.09,1.79,1.79,0,0,0,.58.43,2.31,2.31,0,0,0,.63.1h18.68a2.27,2.27,0,0,0,.58-.1,1.91,1.91,0,0,0,.58-.43,1.64,1.64,0,0,0,.46-1.09V252.85A1.69,1.69,0,0,0,213.34,251.7Zm-3.82,32.18H196.11v-5.21h13.41Z" transform="translate(-122.51 -145.3)"/><path class="cls-5" d="M191.83,270.43v17.63a1.66,1.66,0,0,0,.46,1.1v.07c.17.11.35.23.58.35a2.31,2.31,0,0,0,.63.1h18.68a2.27,2.27,0,0,0,.58-.1c.23-.12.41-.24.58-.35v-.07a1.66,1.66,0,0,0,.46-1.1V270.43Zm17.69,13.45H196.11v-5.21h13.41Z" transform="translate(-122.51 -145.3)"/><path class="cls-4" d="M319.7,251.7a1.6,1.6,0,0,0-1.15-.53H299.87a1.66,1.66,0,0,0-1.21.53,1.69,1.69,0,0,0-.46,1.15v35.21a1.64,1.64,0,0,0,.46,1.09,1.91,1.91,0,0,0,.58.43,2.31,2.31,0,0,0,.63.1h18.68a2.27,2.27,0,0,0,.58-.1,1.79,1.79,0,0,0,.58-.43,1.59,1.59,0,0,0,.46-1.09V252.85A1.65,1.65,0,0,0,319.7,251.7Zm-3.81,32.18H302.48v-5.21h13.41Z" transform="translate(-122.51 -145.3)"/><path class="cls-5" d="M298.2,270.43v17.63a1.66,1.66,0,0,0,.46,1.1v.07c.17.11.35.23.58.35a2.31,2.31,0,0,0,.63.1h18.68a2.27,2.27,0,0,0,.58-.1,5.52,5.52,0,0,0,.58-.35v-.07a1.62,1.62,0,0,0,.46-1.1V270.43Zm17.69,13.45H302.48v-5.21h13.41Z" transform="translate(-122.51 -145.3)"/><path class="cls-3" d="M300.29,174.16H288.73V163.91a7.05,7.05,0,0,0-7.06-7.07H230.33a7,7,0,0,0-7.06,7.07v10.25H211.72V163.91a18.61,18.61,0,0,1,18.61-18.61h51.34a18.62,18.62,0,0,1,18.62,18.61v10.25Z" transform="translate(-122.51 -145.3)"/></svg>